<svg xmlns="http://www.w3.org/2000/svg" viewBox="0 0 256 57"><path d="M138.9 37.2l2.8 5.2c.1.1.1.2.1.4 0 .4-.3.8-.8.8h-2.5c-.3 0-.6-.2-.7-.4l-2.7-5.1h-3v4.8c0 .4-.3.8-.8.8H129c-.4 0-.8-.4-.8-.8V28.3c0-.4.3-.8.8-.8h6.8c4 0 6 2.1 6 5.1.1 2.4-1.4 3.9-2.9 4.6m-.9-4.3c0-1.3-1-2-2.2-2h-3.6v4h3.6c1.2 0 2.2-.7 2.2-2m-12.3 2.6c0 4.7-3.1 8.3-8.2 8.3s-8.2-3.7-8.2-8.3c0-4.6 3.1-8.3 8.2-8.3s8.2 3.7 8.2 8.3m-4 0c0-2.7-1.5-4.8-4.2-4.8s-4.2 2.1-4.2 4.8c0 2.7 1.5 4.8 4.2 4.8s4.2-2.1 4.2-4.8m38 0c0 4.6-2.9 8-8.2 8h-5.9c-.4 0-.8-.4-.8-.8V28.3c0-.4.3-.8.8-.8h5.9c5.3 0 8.2 3.5 8.2 8m-3.9 0c0-2.8-1.5-4.6-4.3-4.6h-2.8v9.2h2.8c2.8 0 4.3-1.8 4.3-4.6m-48.4-8h-2.6c-.4 0-.7.3-.8.6l-2.2 10.1L99 28c-.1-.3-.4-.5-.7-.5H96c-.4 0-.6.2-.7.6l-2.8 10.1-2.2-10.1c-.1-.4-.4-.6-.8-.6H87c-.4 0-.8.4-.8.8v.2L90 42.9c.1.3.4.6.7.6h3c.4 0 .7-.2.7-.6l2.6-9.5 2.5 9.5v.1c.1.3.4.5.7.5h3c.3 0 .6-.2.7-.5v-.1l4-14.5v-.2c.3-.4-.1-.7-.5-.7m-28.9 6.1c-1.7-.3-3.3-.6-3.3-1.7 0-1 1-1.5 2.3-1.5 1.3 0 2.6.4 3.6 1.4l.1.1c.2.2.6.3.9.1l1.5-.9c.2-.2.3-.4.3-.6 0-.1 0-.3-.1-.4 0 0 0-.1-.1-.1-1.6-1.8-3.9-2.5-6.2-2.5-3.7 0-6.2 1.9-6.2 4.9 0 3.4 2.8 4.4 6 5 1.9.3 3.5.6 3.5 1.9 0 1-1.1 1.7-2.8 1.7-1.6 0-3.2-.5-4.2-1.9-.2-.3-.6-.4-1-.2l-1.6.9c-.4.2-.5.7-.3 1v.1c1.4 2.1 3.9 3.3 7 3.3 4.3 0 6.7-2.3 6.7-5.3.1-3.7-2.7-4.7-6.1-5.3m104.3-6.1c-.1 0-.2 0-.3.1-.3.1-.6.4-.6.8v5.9h-9.5v-5.9c0-.5-.4-.8-.8-.8-.5 0-.8.4-.8.8v14.4c0 .5.4.8.8.8.5 0 .8-.4.8-.8v-6.9h9.5v6.9c0 .5.4.8.8.8.5 0 .8-.4.8-.8V28.3c.2-.4-.2-.8-.7-.8M197.9 42h-8.8v-6.1h7.4c.4 0 .8-.4.8-.8s-.4-.8-.8-.8h-7.4v-5.2h8.6c.4 0 .8-.4.8-.8s-.4-.8-.8-.8h-9.5c-.4 0-.8.4-.8.8v14.5c0 .4.4.8.8.8h9.7c.4 0 .8-.4.8-.8 0-.5-.4-.8-.8-.8m41.4-14.5h-11.4c-.4 0-.8.4-.8.8s.4.8.8.8h4.8v13.6c0 .5.4.9.9.9s.9-.4.9-.9V29.1h4.8c.4 0 .8-.4.8-.8s-.3-.8-.8-.8m15.7 0c-.5 0-.8.4-.8.8v5.9h-9.5v-5.9c0-.5-.4-.8-.8-.8-.5 0-.9.4-.9.8v14.4c0 .5.4.8.9.8s.8-.4.8-.8v-6.9h9.5v6.9c0 .5.4.8.8.8.5 0 .8-.4.8-.8V28.3c0-.4-.3-.8-.8-.8M227.4 42H219V28.3c0-.5-.4-.8-.8-.8-.5 0-.8.4-.8.8v14.4c0 .5.4.8.8.8h9.2c.4 0 .8-.4.8-.8s-.4-.7-.8-.7m-12.7.7c0 .4-.2.7-.5.8h-.4c-.4 0-.7-.2-.8-.5v-.1l-1.7-4.2h-6.8l-1.7 4.3c-.1.3-.4.5-.7.5h-.1c-.1 0-.2 0-.3-.1-.4-.2-.6-.6-.5-1.1l6-14.4v-.1s0-.1.1-.1c0 0 0-.1.1-.1l.1-.1h.5c.3 0 .6.2.8.5v.1l5.9 14.3v.3m-4.1-5.6l-2.7-6.9-2.8 6.9h5.5zM.6 29.9c.5.5 1.4.5 1.9 0 .2-.2.4-.6.4-.9 0-.3.1-.6.3-.8l11-11c.2-.2.5-.3.8-.3.3 0 .6-.2.9-.4.2-.2.4-.6.4-.9 0-.3.1-.6.3-.8L29.4 2c.3-.3.3-.7 0-1-.3-.3-.7-.3-1 0L15.7 13.8c-.2.2-.5.3-.8.3-.3 0-.6.1-.9.4-.2.2-.4.6-.4.9 0 .3-.1.6-.3.8l-11 11c-.2.2-.5.3-.8.3-.3 0-.6.1-.9.4-.6.6-.6 1.4 0 2m54.7-2L42.6 40.6c-.3.3-.6.4-.8.4-.3 0-.6.1-.9.4-.2.2-.4.6-.4.9 0 .3-.1.6-.3.8l-11 11c-.2.2-.5.3-.8.3-.3 0-.6.2-.9.4-.3.3-.4.6-.4 1 0 .3.1.7.4 1 .3.3.6.4 1 .4.3 0 .7-.1 1-.4.3-.3.4-.6.4-1 0-.3.1-.5.3-.7L41.1 44c.2-.2.5-.3.8-.3.3 0 .6-.2.9-.4.2-.2.4-.6.4-.9 0-.3.1-.6.3-.8l12.7-12.7c.3-.3.3-.7 0-1-.2-.2-.7-.2-.9 0M1.5 37c.3 0 .7-.1 1-.4l6.7-6.7c.2-.2.4-.6.4-.9 0-.3.1-.6.3-.8l4.3-4.3c.2-.2.5-.3.8-.3.3 0 .6-.1.9-.4l6.7-6.7c.2-.2.4-.6.4-.9 0-.3.1-.6.3-.8L36.1 2c.3-.3.3-.7 0-1-.3-.3-.7-.3-1 0L22.4 13.8c-.2.2-.5.3-.8.3-.3 0-.6.2-.9.4L14 21.2c-.2.2-.4.6-.4.9 0 .3-.1.6-.3.8L9 27.2c-.2.2-.5.3-.8.3-.3 0-.6.1-.9.4L.6 34.6c-.3.3-.4.6-.4 1s.1.7.4 1c.2.2.6.4.9.4m14.4 6.3l13.4-13.4c.2-.2.4-.6.4-.9 0-.3.1-.6.3-.8L56.2 2c.3-.3.3-.7 0-1-.3-.3-.7-.3-1 0L29.1 27.2c-.2.2-.5.3-.8.3-.3 0-.6.2-.9.4L14 41.4c-.5.5-.5 1.4 0 1.9s1.4.5 1.9 0m0 6.7l20.2-20.2c.2-.2.4-.6.4-.9 0-.3.1-.6.3-.8L56.2 8.7c.3-.3.3-.7 0-1-.3-.3-.7-.3-1 0L35.9 27.2c-.2.2-.5.3-.8.3-.3 0-.6.2-.9.4L14 48.1c-.5.5-.5 1.4 0 1.9s1.4.5 1.9 0m13.5-33.6c.2-.2.4-.6.4-.9 0-.3.1-.6.3-.8L42.8 2c.3-.3.3-.7 0-1-.3-.3-.7-.3-1 0L29.1 13.8c-.2.2-.5.3-.8.3-.3 0-.6.2-.9.4L.6 41.4c-.3.3-.4.6-.4 1 0 .3.1.7.4 1s.6.4 1 .4c.3 0 .7-.1 1-.4l26.8-27zm.4 5.9c0-.3.1-.6.3-.8L49.5 2c.3-.3.3-.7 0-1-.3-.3-.7-.3-1 0L29.1 20.5c-.2.2-.5.3-.8.3-.3 0-.6.1-.9.4L7.3 41.4c-.5.5-.5 1.4 0 1.9s1.4.5 1.9 0l20.2-20.2c.2-.2.3-.5.4-.8m13 7.6c.2-.2.4-.6.4-.9 0-.3.1-.6.3-.8l12.7-12.7c.3-.3.3-.7 0-1-.3-.3-.7-.3-1 0L42.6 27.2c-.2.2-.5.3-.8.3-.3 0-.6.2-.9.4L14 54.8c-.5.5-.5 1.4 0 1.9s1.4.5 1.9 0l26.9-26.8zM29.4 50c.3-.3.4-.6.4-1 0-.3.1-.5.3-.7l4.3-4.3c.2-.2.5-.3.8-.3.3 0 .6-.2.9-.4l6.7-6.7c.2-.2.4-.6.4-.9 0-.3.1-.6.3-.8l12.7-12.7c.3-.3.3-.7 0-1-.3-.3-.7-.3-1 0L42.6 33.9c-.2.2-.5.3-.8.3-.3 0-.6.1-.9.4l-6.7 6.7c-.2.2-.4.6-.4.9 0 .3-.1.6-.3.8l-4.3 4.3c-.2.2-.5.3-.8.3-.3 0-.6.2-.9.4l-6.7 6.7c-.5.5-.5 1.4 0 1.9s1.4.5 1.9 0l6.7-6.6z" fill="#fff"/></svg>