<svg version="1.1" id="Layer_1" xmlns="http://www.w3.org/2000/svg" x="0" y="0" viewBox="0 0 256 256" xml:space="preserve"><style/><path d="M46.2 252.4l.8.8 3.2-2.8v-4.8l1.6-1.2.8-.8-2.4-.8-1.6 1.6-2.4.8-2.4 2.4-1.6-1.6-1.2 1.2h-1.2v-1.6H39l-2 2-1.6-2.4v-2.4l-1.6-1.6-2.4 1.2v-2L27 238l-1.6-2.4v-6.3l1.2-4-2.4-5.9 2.4-15.1 3.6-7.1 4.4-13.5 5.2-12.3 6.3-8.7 2.4-5.2 1.6-1.6 2-4.4 2-2.4 4.4-7.5 5.2-5.5 2.8-4.4 6.3-8.3 2.4-2.4-3.2-6.3-.8-2.8-2.8-4.4-13.5-26.3v-2l4.4 8.3 2.4 2-1.3-3.5v-1.2l7.1 10.3h1.6v2.8l1.6-.4-.8.8h1.2l.8 3.6v1.6l.8.8 6.7 10.7 2.4-2.4-8.3-14.3-.8-.8L64.4 82l-.8-.8-.8-2L53.3 65l-1.2-3.2h-1.6l-1.2-3.6v-4.8l-1.6 1.2-3.6-9.5V42l1.6 3.6v-8.7l2-4.4 1.2-6.3 2-1.2 1.2-.8 4-4.8 1.2 1.2.8 2h1.2l2-2h3.2v3.6l1.2 4h1.2l.8-1.6h2.8l1.6 5.9 2 2 2.8-1.2 2.8 4.4 6.7 6.3 6.7 9.9v2.8h2.4v3.2h.8l.8 2 1.6 1.6L109.8 79l2.8-3.2-8.7-11.5-2.8-2.8v-.8h-.8l-3.2-4.4.8-.8.8.4h.8v-.4l-1.6-1.6-1.6 1.6v-.8l-.8-.8v-.4h1.6l-4-5.2v-1.2L85 38.4v-1.6l6.3 5.2 6.3 7.1 4.4 2 17.4 16.6 36.5-46.4 13.5-13.5 11.5-6.3h2.8L190 0l3.6 1.6 1.6 1.6 3.6 1.2v2.4l-.8.8-.8-2H196l-2.4 2 5.2 2.4 1.2-1.6h2.4l-2.4 2-1.2 4.4-2.4 4.8.8 1.2 1.6-.8-2.8 5.9v1.6l-.8 1.6-4.4 13.9-3.6 7.5-.4 2.4-1.6 2.8-4.8 12.3v1l-4 7.9-1.6 4.4-6.3 13.9-2 3.2-5.5 13.5 11.9 15.1 1.6 2.8 2.8 3.2 7.1 10.7-1.2 1.2 5.5 7.1 5.5 5.2.8 1.6.8.8.8 1.2 3.2 6.7 5.2 7.1 3.2 10.3 7.1 12.7 2.8 3.2v4l1.2 4.4v1.2l2.8 5.2-1.2 1.2-1.6.8v1.6l-.8-.8V216l-1.2.8.8-1.2h-2l-6.3-9.5-.8.8v2.8l-2.4-.4-1.2-1.6H203l1.6 2.8v2.8l7.1 8.3v2l-4.8-4.8-1.6 2.8-2.4.4-.8 1.6-.8.8v1.6l-.8.8v1.2h-.8l-.4-.4-1.2.8 7.5 7.9v2.4h-.4l-6.7-6.7h-3.6v-2.4l-9.9-5.2-4-2.8v2l-1.6.8-.8-.8V222h-2.4l-9.1-6.3-1.6.4.8-1.2-7.1-5.2-2.4-.4-2-1.6-4.8-1.2-3.2-3.6-3.6-2-13.1-9.9-1.6-2.8h-1.2l-6.3-6.3-1.6 3.2 19 18.2h-1.2v.8l4.4 5.2H140l-.8-.8-1.2-.8-.8-.8-19.4-19-1.2 1.2-3.2 5.9-.4-2 1.2-3.2h-.8l-2.4 4.4v2.4l1.2.4-2 2.4-2 4-8.7 11.1-3.2 2.4-2.4 5.9-2.4 2.4 2.4-3.6v-.8l-7.9 8.3h-1v-.8l-10.7 16.2L66 250h-5.5l-2-.8-2.8 1.6-3.2.8-5.2 4.8-1.2-1.2v-2.8zM50.9 44v-2.8h-.8v1.6l.8 1.2zm5.6 21.4l-4.8-9.9v2l3.2 6.7 1.6 1.2zm-2.4-11.5v-.4l-.8-1.6v1.6l.8.4zm-.8 188.6l4.8-5.2h-3.2l-1.6 1.6v3.6zm3.2-169.6l1.6 2.4v1.6l-1.6-2.4v-1.6zm.8 5.6h-.8v-.8l.8.8zm9.5 1.5v-1.6L59.2 65v1.6l6.3 11.9 1.3 1.5zM62 246.9l3.6-1.2v-1.6l3.6-1.6 7.1-5.9 2-4.4-3.2 1.6-8.7 8.7-5.5 3.2 1.1 1.2zm1.6-154.6v-.8h-.8l.8.8zm4.8 159.3l-3.6 2.4h-.4l2.8-2.4h1.2zM65.6 23.4V25l-.8-1.6h.8zm0 73.3v-.8l-.8-1.6v1.6l.8.8zm1.2 4.4l.8-1.2v-1.6L66 97.1l.8 2.8v1.2zm17.8 7.9l-2-6.7-15-22.3v1.6l15.9 26.2 1.1 1.2zm-13.9-2v-2.4l-2.4-2v2l2.4 2.4zm0-82v.8l-.8-.8h.8zm1.2 223.9l-2 1.6 1.2-1.6h.8zm1.6-209.7v-3.6h-1.6v2l1.6 1.6zm3.2 206.5l-3.2 1.6h-.8l2.4-1.6h1.6zm1.2-3.2l-.8 1.2v-.8l.8-.4zm.8-12.3l4-4-4 2.4v1.6zm4.7 8l-1.2 1.6 1.2-3.2v1.6zm6.4-17.1l1.6-1.6 1.6-3.2-1.6 1.6-1.6 3.2zm5.5-5.1l4.8-6.7 2.4-2.4 6.3-10.3.8-.4 1.2-4-6.3 9.5-3.2 2.8v1.2l-2 2.4-4 7.9zm1.6-.8l1.6-1.2h-.8l-.8 1.2zm2.4-2.8l.8-1.6-.8.8v.8zm3.5-152.6V59l-1.6-1.6h-.4l2 2.4zm0 139.5l3.2-2.8v-1.2l-3.2 2.8v1.2zm0 8.7l4.8-5.5 2-5.9-5.9 9.9-.8.8v.7zm1.6-146.6v-.8h-.8l.8.8zm3.2 3.6v-.8l-1.6-1.6v.8l1.6 1.6zm-.8 129.2l2.8-4.4 2-1.2 4-4.8H114l-2.4 1.6-.8 2.4-2 1.6-2 3.6v1.2zm2-127.6v-.8h-.8l.8.8zm2 2.4h.8l-.8-.8h-.8l.8.8zm5.5 110.9h.8l.8-2h-1.6v2zm4.4-7.9l.8-.4v-.8l-.8.8v.4zm22.2 21v-1.6l-6.7-5.9-3.6-2-6.7-8.7-1.2 3.2 5.5 5.9 4.4 2.4 8.3 6.7zm1.6 17.8l-.8-2.8-4-3.6v-1.6l4.8 3.6 2.8 3.6-1.6 1.6V210l-1.2.8zm6.3-12.7l-4.4-4.4h-1.6l4.8 4.4h1.2zm-2-68.9h.8l.8-2.4h-.8l-.8 2.4zm12.3 14.3h.8v-1.6l-2.4-1.6v-2.4l-6.7-8.7-1.2 1.2v2.4l1.6 1.6.4 1.2 3.2 3.2 4.3 4.7zm-4.4-117.7l4.4-4.4v-1.2l-4.4 5.6zm.4 78.4l2.4-5.2-2.4 2.8v2.4zm4 49.6l.8-.8-1.2-3.2-1.6 1.6 2 2.4zm.8 1.1h.8l.4-.8h-1.2v.8zm2-62.6l2-3.2v-.8l-2 3.2v.8zm7.5-16.2l.8-1.6v-.8l-.8 1.6v.8zm13.9-67l.8-.8v-.8l-.8.8v.8zm7.9-5.1V2.4h-3.6l3.6 1.6zm-2.4 31.7v-.8l-1.2 1.6 1.2-.8zm9.1 158.1v-.8l-1.2-1.6v.8l1.2 1.6zm4 .8V193l-3.2-2.8v1.2l3.2 3.2zm1.6 2v-.4l-.8-.8v.8l.8.4zm6.7 27.3h.8l1.6 1.6v1.6l-2.4-2.4v-.8zm8.7-3.6l.8.8v.4l-.8-.4v-.8z" fill="#2c2e30"/></svg>